ScienceGothic-Exp.ufo
<glyph name="parenleft" format="2">
  <advance width="928.5"/>
  <unicode hex="0028"/>
  <outline>
    <contour>
      <point x="835.5" y="-256" type="line"/>
      <point x="617.5" y="-256" type="line"/>
      <point x="521.5" y="-184"/>
      <point x="372.5" y="-2"/>
      <point x="272.5" y="213"/>
      <point x="220.5" y="460"/>
      <point x="220.5" y="597" type="qcurve" smooth="yes"/>
      <point x="220.5" y="734"/>
      <point x="272.5" y="977"/>
      <point x="372.5" y="1190"/>
      <point x="521.5" y="1372"/>
      <point x="617.5" y="1448" type="qcurve"/>
      <point x="835.5" y="1448" type="line"/>
      <point x="776.5" y="1399"/>
      <point x="679.5" y="1283"/>
      <point x="602.5" y="1152"/>
      <point x="545.5" y="1007"/>
      <point x="507.5" y="851"/>
      <point x="488.5" y="684"/>
      <point x="488.5" y="597" type="qcurve" smooth="yes"/>
      <point x="488.5" y="510"/>
      <point x="507.5" y="343"/>
      <point x="545.5" y="186"/>
      <point x="602.5" y="41"/>
      <point x="679.5" y="-90"/>
      <point x="776.5" y="-206"/>
      <point x="835.5" y="-256" type="qcurve"/>
    </contour>
  </outline>
</glyph>
<glyph name="slash" format="2">
  <advance width="1491"/>
  <unicode hex="002F"/>
  <outline>
    <contour>
      <point x="1096.5" y="1430" type="line"/>
      <point x="1351.5" y="1430" type="line"/>
      <point x="394.5" y="-100" type="line"/>
      <point x="139.5" y="-100" type="line"/>
    </contour>
  </outline>
</glyph>
<glyph name="two" format="2">
  <advance width="2548"/>
  <unicode hex="0032"/>
  <outline>
    <contour>
      <point x="310" y="0" type="line"/>
      <point x="310" y="319" type="line" smooth="yes"/>
      <point x="310" y="366"/>
      <point x="345" y="465"/>
      <point x="411" y="552"/>
      <point x="509" y="619"/>
      <point x="572" y="632" type="qcurve" smooth="yes"/>
      <point x="1906" y="919" type="line" smooth="yes"/>
      <point x="1940" y="926"/>
      <point x="1981" y="947"/>
      <point x="2004" y="976"/>
      <point x="2012" y="1013"/>
      <point x="2012" y="1035" type="qcurve" smooth="yes"/>
      <point x="2012" y="1170" type="line"/>
      <point x="2012" y="1170"/>
      <point x="2012" y="1170"/>
      <point x="2012" y="1170" type="qcurve"/>
      <point x="610" y="1170" type="line"/>
      <point x="610" y="1170"/>
      <point x="610" y="1170"/>
      <point x="610" y="1170" type="qcurve"/>
      <point x="610" y="892" type="line"/>
      <point x="346" y="936" type="line"/>
      <point x="346" y="1152" type="line" smooth="yes"/>
      <point x="346" y="1214"/>
      <point x="386" y="1311"/>
      <point x="465" y="1378"/>
      <point x="585" y="1414"/>
      <point x="664" y="1414" type="qcurve" smooth="yes"/>
      <point x="1958" y="1414" type="line" smooth="yes"/>
      <point x="2038" y="1414"/>
      <point x="2157" y="1383"/>
      <point x="2236" y="1320"/>
      <point x="2276" y="1228"/>
      <point x="2276" y="1166" type="qcurve" smooth="yes"/>
      <point x="2276" y="1026" type="line" smooth="yes"/>
      <point x="2276" y="968"/>
      <point x="2241" y="862"/>
      <point x="2178" y="777"/>
      <point x="2088" y="718"/>
      <point x="2034" y="706" type="qcurve" smooth="yes"/>
      <point x="689" y="416" type="line" smooth="yes"/>
      <point x="655" y="409"/>
      <point x="611" y="384"/>
      <point x="585" y="351"/>
      <point x="574" y="311"/>
      <point x="574" y="290" type="qcurve" smooth="yes"/>
      <point x="574" y="244" type="line"/>
      <point x="2036" y="244" type="line"/>
      <point x="2036" y="244"/>
      <point x="2036" y="244"/>
      <point x="2036" y="244" type="qcurve"/>
      <point x="2036" y="426" type="line"/>
      <point x="2300" y="382" type="line"/>
      <point x="2300" y="260" type="line" smooth="yes"/>
      <point x="2300" y="181"/>
      <point x="2254" y="79"/>
      <point x="2170" y="22"/>
      <point x="2053" y="0"/>
      <point x="1982" y="0" type="qcurve" smooth="yes"/>
    </contour>
  </outline>
</glyph>
<glyph name="three" format="2">
  <advance width="2642" height="1448"/>
  <unicode hex="0033"/>
  <outline>
    <contour>
      <point x="310" y="394" type="line"/>
      <point x="574" y="442" type="line"/>
      <point x="574" y="244" type="line"/>
      <point x="574" y="244"/>
      <point x="574" y="244"/>
      <point x="574" y="244"/>
      <point x="574" y="244"/>
      <point x="574" y="244" type="qcurve"/>
      <point x="1954" y="244" type="line" smooth="yes"/>
      <point x="1979" y="244"/>
      <point x="2021" y="262"/>
      <point x="2051" y="293"/>
      <point x="2068" y="335"/>
      <point x="2068" y="360" type="qcurve" smooth="yes"/>
      <point x="2068" y="496" type="line" smooth="yes"/>
      <point x="2068" y="519"/>
      <point x="2053" y="556"/>
      <point x="2026" y="583"/>
      <point x="1989" y="598"/>
      <point x="1966" y="598" type="qcurve" smooth="yes"/>
      <point x="1096" y="598" type="line"/>
      <point x="1096" y="822" type="line"/>
      <point x="1938" y="822" type="line" smooth="yes"/>
      <point x="1961" y="822"/>
      <point x="1998" y="837"/>
      <point x="2025" y="864"/>
      <point x="2040" y="902"/>
      <point x="2040" y="924" type="qcurve" smooth="yes"/>
      <point x="2040" y="1046" type="line" smooth="yes"/>
      <point x="2040" y="1071"/>
      <point x="2024" y="1111"/>
      <point x="1995" y="1140"/>
      <point x="1955" y="1156"/>
      <point x="1932" y="1156" type="qcurve" smooth="yes"/>
      <point x="586" y="1156" type="line"/>
      <point x="586" y="1156"/>
      <point x="586" y="1156"/>
      <point x="586" y="1156"/>
      <point x="586" y="1156"/>
      <point x="586" y="1156" type="qcurve"/>
      <point x="586" y="940" type="line"/>
      <point x="322" y="988" type="line"/>
      <point x="322" y="1152" type="line" smooth="yes"/>
      <point x="322" y="1214"/>
      <point x="362" y="1306"/>
      <point x="441" y="1369"/>
      <point x="561" y="1400"/>
      <point x="640" y="1400" type="qcurve" smooth="yes"/>
      <point x="1966" y="1400" type="line" smooth="yes"/>
      <point x="2049" y="1400"/>
      <point x="2176" y="1364"/>
      <point x="2261" y="1289"/>
      <point x="2304" y="1172"/>
      <point x="2304" y="1092" type="qcurve" smooth="yes"/>
      <point x="2304" y="995" type="line" smooth="yes"/>
      <point x="2304" y="931"/>
      <point x="2276" y="836"/>
      <point x="2219" y="770"/>
      <point x="2134" y="730"/>
      <point x="2078" y="720" type="qcurve"/>
      <point x="2131" y="716"/>
      <point x="2224" y="680"/>
      <point x="2293" y="612"/>
      <point x="2332" y="509"/>
      <point x="2332" y="438" type="qcurve" smooth="yes"/>
      <point x="2332" y="310" type="line" smooth="yes"/>
      <point x="2332" y="226"/>
      <point x="2281" y="108"/>
      <point x="2191" y="34"/>
      <point x="2067" y="0"/>
      <point x="1994" y="0" type="qcurve" smooth="yes"/>
      <point x="628" y="0" type="line" smooth="yes"/>
      <point x="556" y="0"/>
      <point x="439" y="21"/>
      <point x="355" y="78"/>
      <point x="310" y="180"/>
      <point x="310" y="260" type="qcurve" smooth="yes"/>
    </contour>
  </outline>
</glyph>
<glyph name="equal" format="2">
  <advance width="1881"/>
  <unicode hex="003D"/>
  <outline>
    <contour>
      <point x="202" y="723" type="line"/>
      <point x="202" y="931" type="line"/>
      <point x="1680" y="931" type="line"/>
      <point x="1680" y="723" type="line"/>
    </contour>
    <contour>
      <point x="202" y="243" type="line"/>
      <point x="202" y="451" type="line"/>
      <point x="1680" y="451" type="line"/>
      <point x="1680" y="243" type="line"/>
    </contour>
  </outline>
</glyph>
<glyph name="question" format="2">
  <advance width="1953"/>
  <unicode hex="003F"/>
  <outline>
    <contour>
      <point x="793" y="462" type="line"/>
      <point x="793" y="596" type="line" smooth="yes"/>
      <point x="793" y="639"/>
      <point x="815" y="708"/>
      <point x="863" y="760"/>
      <point x="937" y="797"/>
      <point x="989" y="807" type="qcurve" smooth="yes"/>
      <point x="1381" y="885" type="line" smooth="yes"/>
      <point x="1412" y="891"/>
      <point x="1451" y="909"/>
      <point x="1473" y="940"/>
      <point x="1481" y="989"/>
      <point x="1481" y="1027" type="qcurve" smooth="yes"/>
      <point x="1481" y="1190" type="line"/>
      <point x="1481" y="1190"/>
      <point x="1481" y="1190"/>
      <point x="1481" y="1190"/>
      <point x="1481" y="1190"/>
      <point x="1481" y="1190" type="qcurve"/>
      <point x="381" y="1190" type="line"/>
      <point x="381" y="1190"/>
      <point x="381" y="1190"/>
      <point x="381" y="1190"/>
      <point x="381" y="1190"/>
      <point x="381" y="1190" type="qcurve"/>
      <point x="381" y="986" type="line"/>
      <point x="155" y="1032" type="line"/>
      <point x="155" y="1166" type="line" smooth="yes"/>
      <point x="155" y="1232"/>
      <point x="191" y="1326"/>
      <point x="268" y="1386"/>
      <point x="388" y="1414"/>
      <point x="473" y="1414" type="qcurve" smooth="yes"/>
      <point x="1387" y="1414" type="line" smooth="yes"/>
      <point x="1473" y="1414"/>
      <point x="1593" y="1387"/>
      <point x="1670" y="1327"/>
      <point x="1705" y="1233"/>
      <point x="1705" y="1166" type="qcurve" smooth="yes"/>
      <point x="1705" y="939" type="line" smooth="yes"/>
      <point x="1705" y="887"/>
      <point x="1676" y="807"/>
      <point x="1613" y="748"/>
      <point x="1513" y="706"/>
      <point x="1442" y="692" type="qcurve" smooth="yes"/>
      <point x="1091" y="622" type="line" smooth="yes"/>
      <point x="1067" y="617"/>
      <point x="1038" y="601"/>
      <point x="1022" y="578"/>
      <point x="1017" y="549"/>
      <point x="1017" y="532" type="qcurve" smooth="yes"/>
      <point x="1017" y="462" type="line"/>
    </contour>
    <contour>
      <point x="746" y="111" type="line"/>
      <point x="746" y="190" type="line" smooth="yes"/>
      <point x="746" y="233"/>
      <point x="750" y="280"/>
      <point x="773" y="303"/>
      <point x="821" y="307"/>
      <point x="865" y="307" type="qcurve" smooth="yes"/>
      <point x="941" y="307" type="line" smooth="yes"/>
      <point x="985" y="307"/>
      <point x="1033" y="303"/>
      <point x="1056" y="280"/>
      <point x="1061" y="233"/>
      <point x="1061" y="190" type="qcurve" smooth="yes"/>
      <point x="1061" y="111" type="line" smooth="yes"/>
      <point x="1061" y="67"/>
      <point x="1056" y="19"/>
      <point x="1033" y="-4"/>
      <point x="985" y="-8"/>
      <point x="941" y="-8" type="qcurve" smooth="yes"/>
      <point x="865" y="-8" type="line" smooth="yes"/>
      <point x="821" y="-8"/>
      <point x="773" y="-4"/>
      <point x="750" y="19"/>
      <point x="746" y="67"/>
      <point x="746" y="111" type="qcurve"/>
    </contour>
  </outline>
</glyph>
<glyph name="B" format="2">
  <advance width="2836"/>
  <unicode hex="0042"/>
  <anchor x="1418" y="1550" name="top"/>
  <anchor x="1418" y="-150" name="bottom"/>
  <outline>
    <contour>
      <point x="310" y="0" type="line"/>
      <point x="2248" y="0" type="line" smooth="yes"/>
      <point x="2324" y="0"/>
      <point x="2450" y="24"/>
      <point x="2541" y="92"/>
      <point x="2592" y="215"/>
      <point x="2592" y="314" type="qcurve" smooth="yes"/>
      <point x="2592" y="420" type="line" smooth="yes"/>
      <point x="2592" y="483"/>
      <point x="2568" y="584"/>
      <point x="2517" y="661"/>
      <point x="2439" y="712"/>
      <point x="2385" y="724" type="qcurve"/>
      <point x="2433" y="738"/>
      <point x="2505" y="787"/>
      <point x="2552" y="855"/>
      <point x="2576" y="943"/>
      <point x="2576" y="997" type="qcurve" smooth="yes"/>
      <point x="2576" y="1094" type="line" smooth="yes"/>
      <point x="2576" y="1190"/>
      <point x="2525" y="1310"/>
      <point x="2434" y="1377"/>
      <point x="2308" y="1400"/>
      <point x="2232" y="1400" type="qcurve" smooth="yes"/>
      <point x="310" y="1400" type="line"/>
    </contour>
    <contour>
      <point x="574" y="244" type="line"/>
      <point x="574" y="598" type="line"/>
      <point x="2222" y="598" type="line" smooth="yes"/>
      <point x="2275" y="598"/>
      <point x="2328" y="557"/>
      <point x="2328" y="498" type="qcurve" smooth="yes"/>
      <point x="2328" y="343" type="line" smooth="yes"/>
      <point x="2328" y="318"/>
      <point x="2315" y="280"/>
      <point x="2288" y="256"/>
      <point x="2248" y="244"/>
      <point x="2222" y="244" type="qcurve" smooth="yes"/>
    </contour>
    <contour>
      <point x="574" y="835" type="line"/>
      <point x="574" y="1156" type="line"/>
      <point x="2206" y="1156" type="line" smooth="yes"/>
      <point x="2232" y="1156"/>
      <point x="2272" y="1144"/>
      <point x="2299" y="1120"/>
      <point x="2312" y="1083"/>
      <point x="2312" y="1057" type="qcurve" smooth="yes"/>
      <point x="2312" y="935" type="line" smooth="yes"/>
      <point x="2312" y="906"/>
      <point x="2299" y="867"/>
      <point x="2272" y="844"/>
      <point x="2232" y="835"/>
      <point x="2206" y="835" type="qcurve" smooth="yes"/>
    </contour>
  </outline>
</glyph>
<glyph name="C" format="2">
  <advance width="2722" height="1448"/>
  <unicode hex="0043"/>
  <anchor x="1362" y="1550" name="top"/>
  <anchor x="1362" y="-150" name="bottom"/>
  <outline>
    <contour>
      <point x="294" y="1140" type="line"/>
      <point x="294" y="272" type="line" smooth="yes"/>
      <point x="294" y="195"/>
      <point x="331" y="86"/>
      <point x="413" y="17"/>
      <point x="543" y="-14"/>
      <point x="636" y="-14" type="qcurve" smooth="yes"/>
      <point x="2128" y="-14" type="line" smooth="yes"/>
      <point x="2221" y="-14"/>
      <point x="2352" y="17"/>
      <point x="2434" y="86"/>
      <point x="2472" y="195"/>
      <point x="2472" y="272" type="qcurve" smooth="yes"/>
      <point x="2472" y="478" type="line"/>
      <point x="2208" y="530" type="line"/>
      <point x="2208" y="230" type="line"/>
      <point x="2208" y="230"/>
      <point x="2208" y="230"/>
      <point x="2208" y="230"/>
      <point x="2208" y="230"/>
      <point x="2208" y="230" type="qcurve"/>
      <point x="558" y="230" type="line"/>
      <point x="558" y="230"/>
      <point x="558" y="230"/>
      <point x="558" y="230"/>
      <point x="558" y="230"/>
      <point x="558" y="230" type="qcurve"/>
      <point x="558" y="1170" type="line"/>
      <point x="558" y="1170"/>
      <point x="558" y="1170"/>
      <point x="558" y="1170"/>
      <point x="558" y="1170"/>
      <point x="558" y="1170" type="qcurve"/>
      <point x="2200" y="1170" type="line"/>
      <point x="2200" y="1170"/>
      <point x="2200" y="1170"/>
      <point x="2200" y="1170"/>
      <point x="2200" y="1170"/>
      <point x="2200" y="1170" type="qcurve"/>
      <point x="2200" y="896" type="line"/>
      <point x="2464" y="944" type="line"/>
      <point x="2464" y="1140" type="line" smooth="yes"/>
      <point x="2464" y="1214"/>
      <point x="2426" y="1318"/>
      <point x="2343" y="1384"/>
      <point x="2212" y="1414"/>
      <point x="2120" y="1414" type="qcurve" smooth="yes"/>
      <point x="636" y="1414" type="line" smooth="yes"/>
      <point x="545" y="1414"/>
      <point x="415" y="1384"/>
      <point x="332" y="1318"/>
      <point x="294" y="1214"/>
      <point x="294" y="1140" type="qcurve"/>
    </contour>
  </outline>
</glyph>
<glyph name="G" format="2">
  <advance width="2856" height="1448"/>
  <unicode hex="0047"/>
  <anchor x="1432" y="1564" name="top"/>
  <anchor x="1432" y="-164" name="bottom"/>
  <outline>
    <contour>
      <point x="294" y="1140" type="line"/>
      <point x="294" y="272" type="line" smooth="yes"/>
      <point x="294" y="195"/>
      <point x="331" y="86"/>
      <point x="413" y="17"/>
      <point x="543" y="-14"/>
      <point x="636" y="-14" type="qcurve" smooth="yes"/>
      <point x="2228" y="-14" type="line" smooth="yes"/>
      <point x="2321" y="-14"/>
      <point x="2452" y="17"/>
      <point x="2534" y="86"/>
      <point x="2572" y="195"/>
      <point x="2572" y="272" type="qcurve" smooth="yes"/>
      <point x="2572" y="806" type="line"/>
      <point x="1432" y="806" type="line"/>
      <point x="1432" y="562" type="line"/>
      <point x="2308" y="562" type="line"/>
      <point x="2308" y="230" type="line"/>
      <point x="2308" y="230"/>
      <point x="2308" y="230"/>
      <point x="2308" y="230"/>
      <point x="2308" y="230"/>
      <point x="2308" y="230" type="qcurve"/>
      <point x="558" y="230" type="line"/>
      <point x="558" y="230"/>
      <point x="558" y="230"/>
      <point x="558" y="230"/>
      <point x="558" y="230"/>
      <point x="558" y="230" type="qcurve"/>
      <point x="558" y="1170" type="line"/>
      <point x="558" y="1170"/>
      <point x="558" y="1170"/>
      <point x="558" y="1170"/>
      <point x="558" y="1170"/>
      <point x="558" y="1170" type="qcurve"/>
      <point x="2300" y="1170" type="line"/>
      <point x="2300" y="1170"/>
      <point x="2300" y="1170"/>
      <point x="2300" y="1170"/>
      <point x="2300" y="1170"/>
      <point x="2300" y="1170" type="qcurve"/>
      <point x="2300" y="980" type="line"/>
      <point x="2564" y="1036" type="line"/>
      <point x="2564" y="1140" type="line" smooth="yes"/>
      <point x="2564" y="1214"/>
      <point x="2526" y="1318"/>
      <point x="2443" y="1384"/>
      <point x="2312" y="1414"/>
      <point x="2220" y="1414" type="qcurve" smooth="yes"/>
      <point x="636" y="1414" type="line" smooth="yes"/>
      <point x="545" y="1414"/>
      <point x="415" y="1384"/>
      <point x="332" y="1318"/>
      <point x="294" y="1214"/>
      <point x="294" y="1140" type="qcurve"/>
    </contour>
  </outline>
  <guideline angle="0" x="0" y="562"/>
  <guideline angle="0" x="0" y="1036"/>
  <guideline angle="0" x="0" y="980"/>
  <guideline angle="0" x="0" y="806"/>
  <guideline angle="0" x="0" y="700"/>
  <guideline angle="0" x="0" y="906"/>
  <guideline angle="0" x="0" y="494"/>
</glyph>
<glyph name="K" format="2">
  <advance width="2637" height="1448"/>
  <unicode hex="004B"/>
  <anchor x="1350" y="1550" name="top"/>
  <anchor x="1447" y="-150" name="bottom"/>
  <outline>
    <contour>
      <point x="310" y="0" type="line"/>
      <point x="574" y="0" type="line"/>
      <point x="574" y="656" type="line"/>
      <point x="430" y="706" type="line"/>
      <point x="2072" y="0" type="line"/>
      <point x="2637" y="0" type="line"/>
      <point x="919" y="738" type="line"/>
      <point x="919" y="728" type="line"/>
      <point x="2389" y="1400" type="line"/>
      <point x="1920" y="1400" type="line"/>
      <point x="454" y="728" type="line"/>
      <point x="574" y="771" type="line"/>
      <point x="574" y="1400" type="line"/>
      <point x="310" y="1400" type="line"/>
    </contour>
  </outline>
</glyph>
<glyph name="Z" format="2">
  <advance width="2162"/>
  <unicode hex="005A"/>
  <anchor x="1141" y="1550" name="top"/>
  <anchor x="1074" y="-150" name="bottom"/>
  <outline>
    <contour>
      <point x="60" y="0" type="line"/>
      <point x="2087" y="0" type="line"/>
      <point x="2087" y="229" type="line"/>
      <point x="606" y="229" type="line"/>
      <point x="606" y="216" type="line"/>
      <point x="2085" y="1278" type="line"/>
      <point x="2085" y="1400" type="line"/>
      <point x="144" y="1400" type="line"/>
      <point x="144" y="1171" type="line"/>
      <point x="1541" y="1171" type="line"/>
      <point x="1541" y="1185" type="line"/>
      <point x="60" y="122" type="line"/>
    </contour>
  </outline>
</glyph>
<glyph name="backslash" format="2">
  <advance width="1491"/>
  <unicode hex="005C"/>
  <outline>
    <contour>
      <point x="395" y="1430" type="line"/>
      <point x="140" y="1430" type="line"/>
      <point x="1097" y="-100" type="line"/>
      <point x="1352" y="-100" type="line"/>
    </contour>
  </outline>
</glyph>
<glyph name="m" format="2">
  <advance width="2820" height="1448"/>
  <unicode hex="006D"/>
  <anchor x="1410" y="1150" name="top"/>
  <anchor x="1410" y="-150" name="bottom"/>
  <anchor x="170" y="500" name="left"/>
  <outline>
    <contour>
      <point x="270" y="0" type="line"/>
      <point x="518" y="0" type="line"/>
      <point x="518" y="786" type="line"/>
      <point x="1290" y="786" type="line"/>
      <point x="1290" y="0" type="line"/>
      <point x="1538" y="0" type="line"/>
      <point x="1538" y="786" type="line"/>
      <point x="2310" y="786" type="line"/>
      <point x="2310" y="786"/>
      <point x="2310" y="786"/>
      <point x="2310" y="786" type="qcurve"/>
      <point x="2310" y="0" type="line"/>
      <point x="2558" y="0" type="line"/>
      <point x="2558" y="760" type="line" smooth="yes"/>
      <point x="2558" y="827"/>
      <point x="2522" y="922"/>
      <point x="2445" y="982"/>
      <point x="2325" y="1010"/>
      <point x="2240" y="1010" type="qcurve" smooth="yes"/>
      <point x="1820" y="1010" type="line" smooth="yes"/>
      <point x="1752" y="1010"/>
      <point x="1650" y="992"/>
      <point x="1578" y="956"/>
      <point x="1533" y="904"/>
      <point x="1522" y="869" type="qcurve"/>
      <point x="1505" y="916"/>
      <point x="1439" y="972"/>
      <point x="1356" y="1001"/>
      <point x="1263" y="1010"/>
      <point x="1220" y="1010" type="qcurve" smooth="yes"/>
      <point x="800" y="1010" type="line" smooth="yes"/>
      <point x="682" y="1010"/>
      <point x="548" y="957"/>
      <point x="518" y="906" type="qcurve"/>
      <point x="518" y="1000" type="line"/>
      <point x="270" y="1000" type="line"/>
    </contour>
  </outline>
</glyph>
<glyph name="t" format="2">
  <advance width="1336.1"/>
  <unicode hex="0074"/>
  <anchor x="665" y="1394" name="top"/>
  <anchor x="665" y="-160" name="bottom"/>
  <anchor x="669" y="1400" name="right"/>
  <outline>
    <contour>
      <point x="676" y="-10" type="line" smooth="yes"/>
      <point x="607" y="-10"/>
      <point x="510" y="14"/>
      <point x="448" y="65"/>
      <point x="420" y="146"/>
      <point x="420" y="204" type="qcurve" smooth="yes"/>
      <point x="420" y="796" type="line"/>
      <point x="108" y="796" type="line"/>
      <point x="108" y="1000" type="line"/>
      <point x="420" y="1000" type="line"/>
      <point x="420" y="1244" type="line"/>
      <point x="668" y="1244" type="line"/>
      <point x="668" y="1000" type="line"/>
      <point x="1220" y="1000" type="line"/>
      <point x="1220" y="796" type="line"/>
      <point x="668" y="796" type="line"/>
      <point x="668" y="194" type="line"/>
      <point x="668" y="194"/>
      <point x="668" y="194"/>
      <point x="668" y="194" type="qcurve"/>
      <point x="1212" y="194" type="line"/>
      <point x="1170" y="-10" type="line"/>
    </contour>
  </outline>
</glyph>
<glyph name="section" format="2">
  <advance width="2165"/>
  <unicode hex="00A7"/>
  <outline>
    <contour>
      <point x="566" y="-135" type="line"/>
      <point x="1605" y="-135" type="line" smooth="yes"/>
      <point x="1663" y="-135"/>
      <point x="1754" y="-119"/>
      <point x="1817" y="-74"/>
      <point x="1851" y="6"/>
      <point x="1851" y="69" type="qcurve" smooth="yes"/>
      <point x="1851" y="289" type="line" smooth="yes"/>
      <point x="1851" y="303"/>
      <point x="1849" y="327"/>
      <point x="1847" y="338" type="qcurve"/>
      <point x="1864" y="351"/>
      <point x="1891" y="386"/>
      <point x="1909" y="431"/>
      <point x="1919" y="486"/>
      <point x="1919" y="519" type="qcurve" smooth="yes"/>
      <point x="1919" y="774" type="line" smooth="yes"/>
      <point x="1919" y="836"/>
      <point x="1883" y="921"/>
      <point x="1818" y="972"/>
      <point x="1728" y="994"/>
      <point x="1673" y="994" type="qcurve" smooth="yes"/>
      <point x="594" y="994" type="line"/>
      <point x="594" y="994"/>
      <point x="594" y="994"/>
      <point x="594" y="994" type="qcurve"/>
      <point x="594" y="1196" type="line"/>
      <point x="594" y="1196"/>
      <point x="594" y="1196"/>
      <point x="594" y="1196" type="qcurve"/>
      <point x="1617" y="1196" type="line"/>
      <point x="1617" y="1196"/>
      <point x="1617" y="1196"/>
      <point x="1617" y="1196" type="qcurve"/>
      <point x="1617" y="1106" type="line"/>
      <point x="1837" y="1150" type="line"/>
      <point x="1837" y="1204" type="line" smooth="yes"/>
      <point x="1837" y="1265"/>
      <point x="1801" y="1341"/>
      <point x="1736" y="1384"/>
      <point x="1646" y="1400"/>
      <point x="1591" y="1400" type="qcurve" smooth="yes"/>
      <point x="618" y="1400" type="line" smooth="yes"/>
      <point x="564" y="1400"/>
      <point x="474" y="1384"/>
      <point x="410" y="1341"/>
      <point x="374" y="1265"/>
      <point x="374" y="1204" type="qcurve" smooth="yes"/>
      <point x="374" y="996" type="line" smooth="yes"/>
      <point x="374" y="988"/>
      <point x="374" y="974"/>
      <point x="375" y="966" type="qcurve"/>
      <point x="347" y="958"/>
      <point x="302" y="930"/>
      <point x="271" y="887"/>
      <point x="254" y="825"/>
      <point x="254" y="784" type="qcurve" smooth="yes"/>
      <point x="254" y="487" type="line" smooth="yes"/>
      <point x="254" y="424"/>
      <point x="288" y="344"/>
      <point x="351" y="298"/>
      <point x="441" y="281"/>
      <point x="498" y="281" type="qcurve" smooth="yes"/>
      <point x="1631" y="281" type="line"/>
      <point x="1631" y="281"/>
      <point x="1631" y="281"/>
      <point x="1631" y="281" type="qcurve"/>
      <point x="1631" y="69" type="line"/>
      <point x="1631" y="69"/>
      <point x="1631" y="69"/>
      <point x="1631" y="69" type="qcurve"/>
      <point x="542" y="69" type="line"/>
      <point x="542" y="69"/>
      <point x="542" y="69"/>
      <point x="542" y="69" type="qcurve"/>
      <point x="542" y="173" type="line"/>
      <point x="322" y="127" type="line"/>
      <point x="322" y="69" type="line" smooth="yes"/>
      <point x="322" y="6"/>
      <point x="356" y="-74"/>
      <point x="419" y="-119"/>
      <point x="509" y="-135"/>
      <point x="566" y="-135" type="qcurve"/>
    </contour>
    <contour>
      <point x="474" y="485" type="line"/>
      <point x="474" y="485"/>
      <point x="474" y="485"/>
      <point x="474" y="485" type="qcurve"/>
      <point x="474" y="790" type="line"/>
      <point x="474" y="790"/>
      <point x="474" y="790"/>
      <point x="474" y="790" type="qcurve"/>
      <point x="1699" y="790" type="line"/>
      <point x="1699" y="790"/>
      <point x="1699" y="790"/>
      <point x="1699" y="790" type="qcurve"/>
      <point x="1699" y="485" type="line"/>
      <point x="1699" y="485"/>
      <point x="1699" y="485"/>
      <point x="1699" y="485" type="qcurve"/>
    </contour>
  </outline>
</glyph>
<glyph name="copyright" format="2">
  <advance width="2879"/>
  <unicode hex="00A9"/>
  <outline>
    <contour>
      <point x="652" y="554" type="line"/>
      <point x="652" y="856" type="line" smooth="yes"/>
      <point x="652" y="911"/>
      <point x="681" y="988"/>
      <point x="743" y="1037"/>
      <point x="840" y="1060"/>
      <point x="908" y="1060" type="qcurve" smooth="yes"/>
      <point x="1926" y="1060" type="line" smooth="yes"/>
      <point x="1995" y="1060"/>
      <point x="2092" y="1037"/>
      <point x="2154" y="988"/>
      <point x="2182" y="911"/>
      <point x="2182" y="856" type="qcurve" smooth="yes"/>
      <point x="2182" y="810" type="line"/>
      <point x="1954" y="764" type="line"/>
      <point x="1954" y="856" type="line"/>
      <point x="1954" y="856"/>
      <point x="1954" y="856"/>
      <point x="1954" y="856" type="qcurve"/>
      <point x="880" y="856" type="line"/>
      <point x="880" y="856"/>
      <point x="880" y="856"/>
      <point x="880" y="856" type="qcurve"/>
      <point x="880" y="544" type="line"/>
      <point x="880" y="544"/>
      <point x="880" y="544"/>
      <point x="880" y="544" type="qcurve"/>
      <point x="1958" y="544" type="line"/>
      <point x="1958" y="544"/>
      <point x="1958" y="544"/>
      <point x="1958" y="544" type="qcurve"/>
      <point x="1958" y="646" type="line"/>
      <point x="2186" y="596" type="line"/>
      <point x="2186" y="554" type="line" smooth="yes"/>
      <point x="2186" y="496"/>
      <point x="2158" y="415"/>
      <point x="2097" y="364"/>
      <point x="2000" y="340"/>
      <point x="1930" y="340" type="qcurve" smooth="yes"/>
      <point x="908" y="340" type="line" smooth="yes"/>
      <point x="838" y="340"/>
      <point x="741" y="364"/>
      <point x="680" y="415"/>
      <point x="652" y="496"/>
      <point x="652" y="554" type="qcurve"/>
    </contour>
    <contour>
      <point x="294" y="1104" type="line" smooth="yes"/>
      <point x="294" y="1190"/>
      <point x="344" y="1297"/>
      <point x="434" y="1357"/>
      <point x="560" y="1378"/>
      <point x="636" y="1378" type="qcurve" smooth="yes"/>
      <point x="2212" y="1378" type="line" smooth="yes"/>
      <point x="2288" y="1378"/>
      <point x="2414" y="1357"/>
      <point x="2505" y="1297"/>
      <point x="2556" y="1190"/>
      <point x="2556" y="1104" type="qcurve" smooth="yes"/>
      <point x="2556" y="308" type="line" smooth="yes"/>
      <point x="2556" y="220"/>
      <point x="2509" y="108"/>
      <point x="2420" y="45"/>
      <point x="2292" y="22"/>
      <point x="2212" y="22" type="qcurve" smooth="yes"/>
      <point x="636" y="22" type="line" smooth="yes"/>
      <point x="556" y="22"/>
      <point x="429" y="46"/>
      <point x="341" y="109"/>
      <point x="294" y="220"/>
      <point x="294" y="308" type="qcurve" smooth="yes"/>
    </contour>
    <contour>
      <point x="488" y="1104" type="line"/>
      <point x="488" y="308" type="line" smooth="yes"/>
      <point x="488" y="282"/>
      <point x="500" y="239"/>
      <point x="532" y="209"/>
      <point x="590" y="192"/>
      <point x="636" y="192" type="qcurve" smooth="yes"/>
      <point x="2212" y="192" type="line" smooth="yes"/>
      <point x="2258" y="192"/>
      <point x="2317" y="209"/>
      <point x="2350" y="239"/>
      <point x="2362" y="282"/>
      <point x="2362" y="308" type="qcurve" smooth="yes"/>
      <point x="2362" y="1104" type="line" smooth="yes"/>
      <point x="2362" y="1127"/>
      <point x="2350" y="1165"/>
      <point x="2317" y="1193"/>
      <point x="2259" y="1208"/>
      <point x="2212" y="1208" type="qcurve" smooth="yes"/>
      <point x="636" y="1208" type="line" smooth="yes"/>
      <point x="603" y="1208"/>
      <point x="549" y="1200"/>
      <point x="510" y="1177"/>
      <point x="488" y="1136"/>
      <point x="488" y="1104" type="qcurve"/>
    </contour>
  </outline>
</glyph>
<glyph name="logicalnot" format="2">
  <advance width="1881"/>
  <unicode hex="00AC"/>
  <outline>
    <contour>
      <point x="1680" y="243" type="line"/>
      <point x="1456" y="243" type="line"/>
      <point x="1456" y="723" type="line"/>
      <point x="202" y="723" type="line"/>
      <point x="202" y="931" type="line"/>
      <point x="1680" y="931" type="line"/>
    </contour>
  </outline>
</glyph>
<glyph name="eth" format="2">
  <advance width="2227"/>
  <unicode hex="00F0"/>
  <outline>
    <contour>
      <point x="514" y="-10" type="line"/>
      <point x="1690" y="-10" type="line" smooth="yes"/>
      <point x="1760" y="-10"/>
      <point x="1857" y="14"/>
      <point x="1918" y="65"/>
      <point x="1946" y="146"/>
      <point x="1946" y="204" type="qcurve" smooth="yes"/>
      <point x="1946" y="526" type="line" smooth="yes"/>
      <point x="1946" y="652"/>
      <point x="1908" y="859"/>
      <point x="1833" y="1029"/>
      <point x="1723" y="1163"/>
      <point x="1651" y="1216" type="qcurve"/>
      <point x="1969" y="1266" type="line"/>
      <point x="1950" y="1395" type="line"/>
      <point x="1468" y="1320" type="line"/>
      <point x="1360" y="1367"/>
      <point x="1104" y="1433"/>
      <point x="953" y="1458" type="qcurve"/>
      <point x="659" y="1354" type="line"/>
      <point x="784" y="1337"/>
      <point x="1003" y="1292"/>
      <point x="1099" y="1262" type="qcurve"/>
      <point x="706" y="1201" type="line"/>
      <point x="725" y="1071" type="line"/>
      <point x="1331" y="1166" type="line"/>
      <point x="1391" y="1133"/>
      <point x="1492" y="1055"/>
      <point x="1533" y="1010" type="qcurve"/>
      <point x="514" y="1010" type="line" smooth="yes"/>
      <point x="446" y="1010"/>
      <point x="349" y="987"/>
      <point x="287" y="937"/>
      <point x="258" y="860"/>
      <point x="258" y="806" type="qcurve" smooth="yes"/>
      <point x="258" y="204" type="line" smooth="yes"/>
      <point x="258" y="146"/>
      <point x="286" y="65"/>
      <point x="348" y="14"/>
      <point x="445" y="-10"/>
      <point x="514" y="-10" type="qcurve"/>
    </contour>
    <contour>
      <point x="1661" y="786" type="line"/>
      <point x="1680" y="729"/>
      <point x="1698" y="602"/>
      <point x="1698" y="530" type="qcurve" smooth="yes"/>
      <point x="1698" y="214" type="line"/>
      <point x="1698" y="214"/>
      <point x="1698" y="214"/>
      <point x="1698" y="214" type="qcurve"/>
      <point x="506" y="214" type="line"/>
      <point x="506" y="214"/>
      <point x="506" y="214"/>
      <point x="506" y="214" type="qcurve"/>
      <point x="506" y="786" type="line"/>
      <point x="506" y="786"/>
      <point x="506" y="786"/>
      <point x="506" y="786" type="qcurve"/>
    </contour>
  </outline>
</glyph>
<glyph name="uni0306" format="2">
  <unicode hex="0306"/>
  <anchor x="0" y="1150" name="_top"/>
  <anchor x="0" y="1517" name="top"/>
  <outline>
    <contour>
      <point x="-378" y="1417" type="line"/>
      <point x="-378" y="1323"/>
      <point x="-335" y="1204"/>
      <point x="-242" y="1136"/>
      <point x="-99" y="1110"/>
      <point x="2" y="1110" type="qcurve" smooth="yes"/>
      <point x="102" y="1110"/>
      <point x="245" y="1136"/>
      <point x="337" y="1204"/>
      <point x="380" y="1323"/>
      <point x="380" y="1417" type="qcurve"/>
      <point x="222" y="1417" type="line"/>
      <point x="222" y="1371"/>
      <point x="198" y="1311"/>
      <point x="145" y="1278"/>
      <point x="61" y="1265"/>
      <point x="2" y="1265" type="qcurve" smooth="yes"/>
      <point x="-58" y="1265"/>
      <point x="-143" y="1278"/>
      <point x="-196" y="1311"/>
      <point x="-220" y="1371"/>
      <point x="-220" y="1417" type="qcurve"/>
    </contour>
  </outline>
</glyph>
<glyph name="uni0326" format="2">
  <unicode hex="0326"/>
  <anchor x="0" y="-150" name="_bottom"/>
  <outline>
    <contour>
      <point x="-107" y="-580" type="line"/>
      <point x="-8" y="-367" type="line"/>
      <point x="-30" y="-367" type="line" smooth="yes"/>
      <point x="-63" y="-367"/>
      <point x="-99" y="-364"/>
      <point x="-117" y="-346"/>
      <point x="-120" y="-308"/>
      <point x="-120" y="-273" type="qcurve" smooth="yes"/>
      <point x="-120" y="-219" type="line" smooth="yes"/>
      <point x="-120" y="-185"/>
      <point x="-117" y="-148"/>
      <point x="-99" y="-130"/>
      <point x="-63" y="-127"/>
      <point x="-30" y="-127" type="qcurve" smooth="yes"/>
      <point x="29" y="-127" type="line" smooth="yes"/>
      <point x="62" y="-127"/>
      <point x="99" y="-130"/>
      <point x="116" y="-148"/>
      <point x="119" y="-185"/>
      <point x="119" y="-219" type="qcurve" smooth="yes"/>
      <point x="119" y="-273" type="line" smooth="yes"/>
      <point x="119" y="-303"/>
      <point x="115" y="-343"/>
      <point x="110" y="-353" type="qcurve"/>
      <point x="-37" y="-605" type="line"/>
    </contour>
  </outline>
</glyph>
<glyph name="uni0414" format="2">
  <advance width="2779"/>
  <unicode hex="0414"/>
  <outline>
    <contour>
      <point x="252" y="0" type="line"/>
      <point x="2527" y="0" type="line"/>
      <point x="2539" y="-260" type="line"/>
      <point x="2769" y="-260" type="line"/>
      <point x="2769" y="244" type="line"/>
      <point x="2503" y="244" type="line"/>
      <point x="1483" y="1400" type="line"/>
      <point x="1289" y="1400" type="line"/>
      <point x="276" y="244" type="line"/>
      <point x="10" y="244" type="line"/>
      <point x="10" y="-260" type="line"/>
      <point x="240" y="-260" type="line"/>
    </contour>
    <contour>
      <point x="595" y="244" type="line"/>
      <point x="1369" y="1130" type="line"/>
      <point x="2146" y="244" type="line"/>
    </contour>
  </outline>
</glyph>
<glyph name="uni042E" format="2">
  <advance width="4005"/>
  <unicode hex="042E"/>
  <outline>
    <contour>
      <point x="310" y="0" type="line"/>
      <point x="574" y="0" type="line"/>
      <point x="574" y="608" type="line"/>
      <point x="1464" y="608" type="line"/>
      <point x="1464" y="272" type="line" smooth="yes"/>
      <point x="1464" y="184"/>
      <point x="1508" y="73"/>
      <point x="1592" y="10"/>
      <point x="1716" y="-14"/>
      <point x="1796" y="-14" type="qcurve" smooth="yes"/>
      <point x="3367" y="-14" type="line" smooth="yes"/>
      <point x="3447" y="-14"/>
      <point x="3575" y="9"/>
      <point x="3664" y="72"/>
      <point x="3711" y="184"/>
      <point x="3711" y="272" type="qcurve" smooth="yes"/>
      <point x="3711" y="1140" type="line" smooth="yes"/>
      <point x="3711" y="1226"/>
      <point x="3660" y="1333"/>
      <point x="3569" y="1393"/>
      <point x="3443" y="1414"/>
      <point x="3367" y="1414" type="qcurve" smooth="yes"/>
      <point x="1796" y="1414" type="line" smooth="yes"/>
      <point x="1720" y="1414"/>
      <point x="1598" y="1393"/>
      <point x="1511" y="1333"/>
      <point x="1464" y="1226"/>
      <point x="1464" y="1140" type="qcurve" smooth="yes"/>
      <point x="1464" y="852" type="line"/>
      <point x="574" y="852" type="line"/>
      <point x="574" y="1400" type="line"/>
      <point x="310" y="1400" type="line"/>
    </contour>
    <contour>
      <point x="1718" y="230" type="line"/>
      <point x="1718" y="230"/>
      <point x="1718" y="230"/>
      <point x="1718" y="230"/>
      <point x="1718" y="230"/>
      <point x="1718" y="230" type="qcurve"/>
      <point x="1718" y="1170" type="line"/>
      <point x="1718" y="1170"/>
      <point x="1718" y="1170"/>
      <point x="1718" y="1170"/>
      <point x="1718" y="1170"/>
      <point x="1718" y="1170" type="qcurve"/>
      <point x="3447" y="1170" type="line"/>
      <point x="3447" y="1170"/>
      <point x="3447" y="1170"/>
      <point x="3447" y="1170"/>
      <point x="3447" y="1170"/>
      <point x="3447" y="1170" type="qcurve"/>
      <point x="3447" y="230" type="line"/>
      <point x="3447" y="230"/>
      <point x="3447" y="230"/>
      <point x="3447" y="230"/>
      <point x="3447" y="230"/>
      <point x="3447" y="230" type="qcurve"/>
    </contour>
  </outline>
</glyph>
<glyph name="uni0431" format="2">
  <advance width="2225"/>
  <unicode hex="0431"/>
  <outline>
    <contour>
      <point x="1717" y="1303" type="line"/>
      <point x="1717" y="1248" type="line"/>
      <point x="1717" y="1248"/>
      <point x="1717" y="1248"/>
      <point x="1717" y="1248" type="qcurve"/>
      <point x="633" y="1206" type="line" smooth="yes"/>
      <point x="554" y="1203"/>
      <point x="416" y="1165"/>
      <point x="316" y="1087"/>
      <point x="258" y="967"/>
      <point x="258" y="883" type="qcurve" smooth="yes"/>
      <point x="258" y="190" type="line" smooth="yes"/>
      <point x="258" y="136"/>
      <point x="286" y="60"/>
      <point x="348" y="12"/>
      <point x="445" y="-10"/>
      <point x="514" y="-10" type="qcurve" smooth="yes"/>
      <point x="1711" y="-10" type="line" smooth="yes"/>
      <point x="1781" y="-10"/>
      <point x="1878" y="14"/>
      <point x="1939" y="65"/>
      <point x="1967" y="146"/>
      <point x="1967" y="204" type="qcurve" smooth="yes"/>
      <point x="1967" y="646" type="line" smooth="yes"/>
      <point x="1967" y="700"/>
      <point x="1938" y="777"/>
      <point x="1876" y="827"/>
      <point x="1779" y="850"/>
      <point x="1711" y="850" type="qcurve" smooth="yes"/>
      <point x="708" y="850" type="line" smooth="yes"/>
      <point x="659" y="850"/>
      <point x="579" y="836"/>
      <point x="519" y="809"/>
      <point x="479" y="768"/>
      <point x="468" y="740" type="qcurve"/>
      <point x="468" y="840" type="line" smooth="yes"/>
      <point x="468" y="875"/>
      <point x="496" y="926"/>
      <point x="544" y="961"/>
      <point x="606" y="980"/>
      <point x="640" y="981" type="qcurve" smooth="yes"/>
      <point x="1701" y="1025" type="line" smooth="yes"/>
      <point x="1763" y="1028"/>
      <point x="1849" y="1054"/>
      <point x="1903" y="1108"/>
      <point x="1927" y="1194"/>
      <point x="1927" y="1255" type="qcurve" smooth="yes"/>
      <point x="1927" y="1303" type="line"/>
    </contour>
    <contour>
      <point x="506" y="214" type="line"/>
      <point x="506" y="214"/>
      <point x="506" y="214"/>
      <point x="506" y="214" type="qcurve"/>
      <point x="506" y="626" type="line"/>
      <point x="506" y="626"/>
      <point x="506" y="626"/>
      <point x="506" y="626" type="qcurve"/>
      <point x="1719" y="626" type="line"/>
      <point x="1719" y="626"/>
      <point x="1719" y="626"/>
      <point x="1719" y="626" type="qcurve"/>
      <point x="1719" y="214" type="line"/>
      <point x="1719" y="214"/>
      <point x="1719" y="214"/>
      <point x="1719" y="214" type="qcurve"/>
    </contour>
  </outline>
</glyph>
<glyph name="uni0444" format="2">
  <advance width="3080"/>
  <unicode hex="0444"/>
  <anchor x="2226" y="1598" name="top"/>
  <anchor x="2262" y="-578" name="bottom"/>
  <outline>
    <contour>
      <point x="514" y="-10" type="line"/>
      <point x="1176" y="-10" type="line" smooth="yes"/>
      <point x="1276" y="-10"/>
      <point x="1395" y="44"/>
      <point x="1416" y="100" type="qcurve"/>
      <point x="1416" y="-428" type="line"/>
      <point x="1664" y="-428" type="line"/>
      <point x="1664" y="-10" type="line"/>
      <point x="2566" y="-10" type="line" smooth="yes"/>
      <point x="2634" y="-10"/>
      <point x="2731" y="13"/>
      <point x="2793" y="63"/>
      <point x="2822" y="140"/>
      <point x="2822" y="194" type="qcurve" smooth="yes"/>
      <point x="2822" y="796" type="line" smooth="yes"/>
      <point x="2822" y="854"/>
      <point x="2794" y="935"/>
      <point x="2732" y="986"/>
      <point x="2635" y="1010"/>
      <point x="2566" y="1010" type="qcurve" smooth="yes"/>
      <point x="1904" y="1010" type="line" smooth="yes"/>
      <point x="1804" y="1010"/>
      <point x="1685" y="956"/>
      <point x="1664" y="900" type="qcurve"/>
      <point x="1664" y="1400" type="line"/>
      <point x="1416" y="1400" type="line"/>
      <point x="1416" y="1010" type="line"/>
      <point x="514" y="1010" type="line" smooth="yes"/>
      <point x="446" y="1010"/>
      <point x="349" y="987"/>
      <point x="287" y="937"/>
      <point x="258" y="860"/>
      <point x="258" y="806" type="qcurve" smooth="yes"/>
      <point x="258" y="204" type="line" smooth="yes"/>
      <point x="258" y="146"/>
      <point x="286" y="65"/>
      <point x="348" y="14"/>
      <point x="445" y="-10"/>
      <point x="514" y="-10" type="qcurve"/>
    </contour>
    <contour>
      <point x="1416" y="214" type="line"/>
      <point x="506" y="214" type="line"/>
      <point x="506" y="214"/>
      <point x="506" y="214"/>
      <point x="506" y="214" type="qcurve"/>
      <point x="506" y="786" type="line"/>
      <point x="506" y="786"/>
      <point x="506" y="786"/>
      <point x="506" y="786" type="qcurve"/>
      <point x="1416" y="786" type="line"/>
    </contour>
    <contour>
      <point x="1664" y="214" type="line"/>
      <point x="1664" y="786" type="line"/>
      <point x="2574" y="786" type="line"/>
      <point x="2574" y="786"/>
      <point x="2574" y="786"/>
      <point x="2574" y="786" type="qcurve"/>
      <point x="2574" y="214" type="line"/>
      <point x="2574" y="214"/>
      <point x="2574" y="214"/>
      <point x="2574" y="214" type="qcurve"/>
    </contour>
  </outline>
  <guideline angle="90" color="1,0,0,1" x="2916" y="0"/>
  <guideline angle="90" color="1,0,0,1" x="1540" y="0"/>
</glyph>
<glyph name="uni0446" format="2">
  <advance width="2097"/>
  <unicode hex="0446"/>
  <outline>
    <contour>
      <point x="270" y="0" type="line"/>
      <point x="1619" y="0" type="line"/>
      <point x="1631" y="-240" type="line"/>
      <point x="1851" y="-240" type="line"/>
      <point x="1851" y="224" type="line"/>
      <point x="1807" y="224" type="line"/>
      <point x="1807" y="1000" type="line"/>
      <point x="1559" y="1000" type="line"/>
      <point x="1559" y="224" type="line"/>
      <point x="518" y="224" type="line"/>
      <point x="518" y="1000" type="line"/>
      <point x="270" y="1000" type="line"/>
    </contour>
  </outline>
  <guideline angle="90" color="1,0,0,1" name="align" x="1991" y="0"/>
</glyph>
<glyph name="uni0448" format="2">
  <advance width="3104"/>
  <unicode hex="0448"/>
  <outline>
    <contour>
      <point x="270" y="0" type="line"/>
      <point x="2834" y="0" type="line"/>
      <point x="2834" y="1000" type="line"/>
      <point x="2586" y="1000" type="line"/>
      <point x="2586" y="224" type="line"/>
      <point x="1676" y="224" type="line"/>
      <point x="1676" y="1000" type="line"/>
      <point x="1428" y="1000" type="line"/>
      <point x="1428" y="224" type="line"/>
      <point x="518" y="224" type="line"/>
      <point x="518" y="1000" type="line"/>
      <point x="270" y="1000" type="line"/>
    </contour>
  </outline>
</glyph>
<glyph name="uni044A" format="2">
  <advance width="2463"/>
  <unicode hex="044A"/>
  <outline>
    <contour>
      <point x="514" y="-1" type="line"/>
      <point x="1950" y="-1" type="line" smooth="yes"/>
      <point x="2018" y="-1"/>
      <point x="2115" y="20"/>
      <point x="2177" y="64"/>
      <point x="2205" y="134"/>
      <point x="2205" y="182" type="qcurve" smooth="yes"/>
      <point x="2205" y="557" type="line" smooth="yes"/>
      <point x="2205" y="605"/>
      <point x="2177" y="675"/>
      <point x="2115" y="719"/>
      <point x="2018" y="740"/>
      <point x="1950" y="740" type="qcurve" smooth="yes"/>
      <point x="1001" y="740" type="line" smooth="yes"/>
      <point x="902" y="740"/>
      <point x="783" y="690"/>
      <point x="762" y="639" type="qcurve"/>
      <point x="762" y="1000" type="line"/>
      <point x="0" y="1000" type="line"/>
      <point x="0" y="776" type="line"/>
      <point x="514" y="776" type="line"/>
    </contour>
    <contour>
      <point x="762" y="223" type="line"/>
      <point x="762" y="516" type="line"/>
      <point x="1957" y="516" type="line"/>
      <point x="1957" y="516"/>
      <point x="1957" y="516"/>
      <point x="1957" y="516" type="qcurve"/>
      <point x="1957" y="223" type="line"/>
      <point x="1957" y="223"/>
      <point x="1957" y="223"/>
      <point x="1957" y="223" type="qcurve"/>
    </contour>
  </outline>
</glyph>
<glyph name="uni0462" format="2">
  <advance width="2856"/>
  <unicode hex="0462"/>
  <outline>
    <contour>
      <point x="330" y="0" type="line"/>
      <point x="2268" y="0" type="line" smooth="yes"/>
      <point x="2344" y="0"/>
      <point x="2470" y="22"/>
      <point x="2561" y="82"/>
      <point x="2612" y="189"/>
      <point x="2612" y="274" type="qcurve" smooth="yes"/>
      <point x="2612" y="642" type="line" smooth="yes"/>
      <point x="2612" y="707"/>
      <point x="2569" y="805"/>
      <point x="2483" y="870"/>
      <point x="2354" y="902"/>
      <point x="2268" y="902" type="qcurve" smooth="yes"/>
      <point x="594" y="902" type="line"/>
      <point x="594" y="1039" type="line"/>
      <point x="1640" y="1039" type="line"/>
      <point x="1640" y="1263" type="line"/>
      <point x="594" y="1263" type="line"/>
      <point x="594" y="1400" type="line"/>
      <point x="330" y="1400" type="line"/>
      <point x="330" y="1263" type="line"/>
      <point x="130" y="1263" type="line"/>
      <point x="130" y="1039" type="line"/>
      <point x="330" y="1039" type="line"/>
    </contour>
    <contour>
      <point x="594" y="244" type="line"/>
      <point x="594" y="658" type="line"/>
      <point x="2242" y="658" type="line" smooth="yes"/>
      <point x="2268" y="658"/>
      <point x="2308" y="649"/>
      <point x="2335" y="627"/>
      <point x="2348" y="588"/>
      <point x="2348" y="558" type="qcurve" smooth="yes"/>
      <point x="2348" y="344" type="line" smooth="yes"/>
      <point x="2348" y="318"/>
      <point x="2335" y="280"/>
      <point x="2308" y="256"/>
      <point x="2268" y="244"/>
      <point x="2242" y="244" type="qcurve" smooth="yes"/>
    </contour>
  </outline>
</glyph>
<glyph name="uni0472" format="2">
  <advance width="2964"/>
  <unicode hex="0472"/>
  <outline>
    <contour>
      <point x="636" y="-14" type="line"/>
      <point x="2326" y="-14" type="line" smooth="yes"/>
      <point x="2406" y="-14"/>
      <point x="2534" y="9"/>
      <point x="2623" y="72"/>
      <point x="2670" y="184"/>
      <point x="2670" y="272" type="qcurve" smooth="yes"/>
      <point x="2670" y="1140" type="line" smooth="yes"/>
      <point x="2670" y="1226"/>
      <point x="2619" y="1333"/>
      <point x="2528" y="1393"/>
      <point x="2402" y="1414"/>
      <point x="2326" y="1414" type="qcurve" smooth="yes"/>
      <point x="636" y="1414" type="line" smooth="yes"/>
      <point x="560" y="1414"/>
      <point x="434" y="1393"/>
      <point x="344" y="1333"/>
      <point x="294" y="1226"/>
      <point x="294" y="1140" type="qcurve" smooth="yes"/>
      <point x="294" y="272" type="line" smooth="yes"/>
      <point x="294" y="184"/>
      <point x="341" y="73"/>
      <point x="429" y="10"/>
      <point x="556" y="-14"/>
      <point x="636" y="-14" type="qcurve"/>
    </contour>
    <contour>
      <point x="558" y="812" type="line"/>
      <point x="558" y="1170" type="line"/>
      <point x="558" y="1170"/>
      <point x="558" y="1170"/>
      <point x="558" y="1170"/>
      <point x="558" y="1170"/>
      <point x="558" y="1170" type="qcurve"/>
      <point x="2406" y="1170" type="line"/>
      <point x="2406" y="1170"/>
      <point x="2406" y="1170"/>
      <point x="2406" y="1170"/>
      <point x="2406" y="1170"/>
      <point x="2406" y="1170" type="qcurve"/>
      <point x="2406" y="812" type="line"/>
    </contour>
    <contour>
      <point x="558" y="230" type="line"/>
      <point x="558" y="230"/>
      <point x="558" y="230"/>
      <point x="558" y="230"/>
      <point x="558" y="230"/>
      <point x="558" y="230" type="qcurve"/>
      <point x="558" y="588" type="line"/>
      <point x="2406" y="588" type="line"/>
      <point x="2406" y="230" type="line"/>
      <point x="2406" y="230"/>
      <point x="2406" y="230"/>
      <point x="2406" y="230"/>
      <point x="2406" y="230"/>
      <point x="2406" y="230" type="qcurve"/>
    </contour>
  </outline>
</glyph>
<glyph name="uni0473" format="2">
  <advance width="2204"/>
  <unicode hex="0473"/>
  <outline>
    <contour>
      <point x="514" y="-10" type="line"/>
      <point x="1690" y="-10" type="line" smooth="yes"/>
      <point x="1760" y="-10"/>
      <point x="1857" y="14"/>
      <point x="1918" y="65"/>
      <point x="1946" y="146"/>
      <point x="1946" y="204" type="qcurve" smooth="yes"/>
      <point x="1946" y="806" type="line" smooth="yes"/>
      <point x="1946" y="914"/>
      <point x="1827" y="1010"/>
      <point x="1690" y="1010" type="qcurve" smooth="yes"/>
      <point x="514" y="1010" type="line" smooth="yes"/>
      <point x="446" y="1010"/>
      <point x="349" y="987"/>
      <point x="287" y="937"/>
      <point x="258" y="860"/>
      <point x="258" y="806" type="qcurve" smooth="yes"/>
      <point x="258" y="204" type="line" smooth="yes"/>
      <point x="258" y="146"/>
      <point x="286" y="65"/>
      <point x="348" y="14"/>
      <point x="445" y="-10"/>
      <point x="514" y="-10" type="qcurve"/>
    </contour>
    <contour>
      <point x="506" y="410" type="line"/>
      <point x="1698" y="410" type="line"/>
      <point x="1698" y="214" type="line"/>
      <point x="1698" y="214"/>
      <point x="1698" y="214"/>
      <point x="1698" y="214" type="qcurve"/>
      <point x="506" y="214" type="line"/>
      <point x="506" y="214"/>
      <point x="506" y="214"/>
      <point x="506" y="214" type="qcurve"/>
    </contour>
    <contour>
      <point x="506" y="590" type="line"/>
      <point x="506" y="786" type="line"/>
      <point x="506" y="786"/>
      <point x="506" y="786"/>
      <point x="506" y="786" type="qcurve"/>
      <point x="1698" y="786" type="line"/>
      <point x="1698" y="786"/>
      <point x="1698" y="786"/>
      <point x="1698" y="786" type="qcurve"/>
      <point x="1698" y="590" type="line"/>
    </contour>
  </outline>
</glyph>
<glyph name="uni0497" format="2">
  <advance width="2872"/>
  <unicode hex="0497"/>
  <outline>
    <contour>
      <point x="525" y="0" type="line"/>
      <point x="1402" y="478" type="line"/>
      <point x="1402" y="0" type="line"/>
      <point x="1650" y="0" type="line"/>
      <point x="1650" y="478" type="line"/>
      <point x="2537" y="0" type="line"/>
      <point x="2640" y="0" type="line"/>
      <point x="2652" y="-240" type="line"/>
      <point x="2872" y="-240" type="line"/>
      <point x="2872" y="224" type="line"/>
      <point x="2639" y="224" type="line"/>
      <point x="2041" y="535" type="line"/>
      <point x="2872" y="1000" type="line"/>
      <point x="2454" y="1000" type="line"/>
      <point x="1650" y="540" type="line"/>
      <point x="1650" y="1000" type="line"/>
      <point x="1402" y="1000" type="line"/>
      <point x="1402" y="540" type="line"/>
      <point x="598" y="1000" type="line"/>
      <point x="180" y="1000" type="line"/>
      <point x="1011" y="535" type="line"/>
      <point x="0" y="0" type="line"/>
    </contour>
  </outline>
  <guideline angle="90" color="1,0,0,1" x="2872" y="0"/>
  <guideline angle="90" color="1,0,0,1" x="2872" y="0"/>
</glyph>
<glyph name="uni049D" format="2">
  <advance width="2094"/>
  <unicode hex="049D"/>
  <outline>
    <contour>
      <point x="270" y="0" type="line"/>
      <point x="518" y="0" type="line"/>
      <point x="518" y="402" type="line"/>
      <point x="675" y="402" type="line"/>
      <point x="675" y="129" type="line"/>
      <point x="887" y="129" type="line"/>
      <point x="887" y="399" type="line"/>
      <point x="1625" y="0" type="line"/>
      <point x="2094" y="0" type="line"/>
      <point x="1110" y="521" type="line"/>
      <point x="1914" y="1000" type="line"/>
      <point x="1526" y="1000" type="line"/>
      <point x="887" y="626" type="line"/>
      <point x="887" y="871" type="line"/>
      <point x="675" y="871" type="line"/>
      <point x="675" y="626" type="line"/>
      <point x="518" y="626" type="line"/>
      <point x="518" y="1000" type="line"/>
      <point x="270" y="1000" type="line"/>
    </contour>
  </outline>
</glyph>
<glyph name="uni04B8" format="2">
  <advance width="2741"/>
  <unicode hex="04B8"/>
  <outline>
    <contour>
      <point x="2167" y="0" type="line"/>
      <point x="2431" y="0" type="line"/>
      <point x="2431" y="1400" type="line"/>
      <point x="2167" y="1400" type="line"/>
      <point x="2167" y="741" type="line"/>
      <point x="1483" y="741" type="line"/>
      <point x="1483" y="1220" type="line"/>
      <point x="1239" y="1220" type="line"/>
      <point x="1239" y="741" type="line"/>
      <point x="554" y="741" type="line"/>
      <point x="554" y="741"/>
      <point x="554" y="741"/>
      <point x="554" y="741"/>
      <point x="554" y="741"/>
      <point x="554" y="741" type="qcurve"/>
      <point x="554" y="1400" type="line"/>
      <point x="290" y="1400" type="line"/>
      <point x="290" y="785" type="line" smooth="yes"/>
      <point x="290" y="697"/>
      <point x="338" y="584"/>
      <point x="428" y="521"/>
      <point x="556" y="497"/>
      <point x="637" y="497" type="qcurve" smooth="yes"/>
      <point x="1239" y="497" type="line"/>
      <point x="1239" y="180" type="line"/>
      <point x="1483" y="180" type="line"/>
      <point x="1483" y="497" type="line"/>
      <point x="2167" y="497" type="line"/>
    </contour>
  </outline>
</glyph>
<glyph name="uni04F6" format="2">
  <advance width="2076"/>
  <unicode hex="04F6"/>
  <outline>
    <contour>
      <point x="310" y="0" type="line" name="ATT"/>
      <point x="524" y="0" type="line"/>
      <point x="536" y="-260" type="line"/>
      <point x="766" y="-260" type="line"/>
      <point x="766" y="244" type="line"/>
      <point x="574" y="244" type="line"/>
      <point x="574" y="1156" type="line"/>
      <point x="2066" y="1156" type="line"/>
      <point x="2066" y="1400" type="line"/>
      <point x="310" y="1400" type="line"/>
    </contour>
  </outline>
</glyph>
<glyph name="uni1E9E" format="2">
  <advance width="2673"/>
  <unicode hex="1E9E"/>
  <outline>
    <contour>
      <point x="302" y="0" type="line"/>
      <point x="566" y="0" type="line"/>
      <point x="566" y="1170" type="line"/>
      <point x="566" y="1170"/>
      <point x="566" y="1170"/>
      <point x="566" y="1170"/>
      <point x="566" y="1170"/>
      <point x="566" y="1170" type="qcurve"/>
      <point x="1942" y="1170" type="line"/>
      <point x="1942" y="1170"/>
      <point x="1942" y="1170"/>
      <point x="1942" y="1170"/>
      <point x="1942" y="1170"/>
      <point x="1942" y="1170" type="qcurve"/>
      <point x="1469" y="763" type="line"/>
      <point x="1469" y="550" type="line"/>
      <point x="2235" y="550" type="line"/>
      <point x="2235" y="550"/>
      <point x="2235" y="550"/>
      <point x="2235" y="550" type="qcurve"/>
      <point x="2235" y="244" type="line"/>
      <point x="2235" y="244"/>
      <point x="2235" y="244"/>
      <point x="2235" y="244" type="qcurve"/>
      <point x="824" y="244" type="line"/>
      <point x="824" y="0" type="line"/>
      <point x="2155" y="0" type="line" smooth="yes"/>
      <point x="2235" y="0"/>
      <point x="2363" y="23"/>
      <point x="2452" y="86"/>
      <point x="2499" y="198"/>
      <point x="2499" y="286" type="qcurve" smooth="yes"/>
      <point x="2499" y="520" type="line" smooth="yes"/>
      <point x="2499" y="606"/>
      <point x="2448" y="713"/>
      <point x="2357" y="773"/>
      <point x="2231" y="794"/>
      <point x="2155" y="794" type="qcurve" smooth="yes"/>
      <point x="1859" y="794" type="line"/>
      <point x="2444" y="1298" type="line"/>
      <point x="2424" y="1333"/>
      <point x="2362" y="1378"/>
      <point x="2283" y="1404"/>
      <point x="2188" y="1414"/>
      <point x="2135" y="1414" type="qcurve" smooth="yes"/>
      <point x="644" y="1414" type="line" smooth="yes"/>
      <point x="568" y="1414"/>
      <point x="442" y="1393"/>
      <point x="352" y="1333"/>
      <point x="302" y="1226"/>
      <point x="302" y="1140" type="qcurve" smooth="yes"/>
    </contour>
  </outline>
</glyph>
<glyph name="uni20BA" format="2">
  <advance width="2722"/>
  <unicode hex="20BA"/>
  <outline>
    <contour>
      <point x="563" y="0" type="line"/>
      <point x="563" y="561" type="line"/>
      <point x="186" y="424" type="line"/>
      <point x="186" y="584" type="line"/>
      <point x="563" y="721" type="line"/>
      <point x="563" y="831" type="line"/>
      <point x="186" y="694" type="line"/>
      <point x="186" y="854" type="line"/>
      <point x="563" y="991" type="line"/>
      <point x="563" y="1400" type="line"/>
      <point x="827" y="1400" type="line"/>
      <point x="827" y="1087" type="line"/>
      <point x="1505" y="1334" type="line"/>
      <point x="1505" y="1174" type="line"/>
      <point x="827" y="927" type="line"/>
      <point x="827" y="817" type="line"/>
      <point x="1505" y="1064" type="line"/>
      <point x="1505" y="904" type="line"/>
      <point x="827" y="657" type="line"/>
      <point x="827" y="244" type="line"/>
      <point x="1709" y="244" type="line" smooth="yes"/>
      <point x="1807" y="244"/>
      <point x="1970" y="263"/>
      <point x="2102" y="307"/>
      <point x="2202" y="379"/>
      <point x="2269" y="483"/>
      <point x="2303" y="622"/>
      <point x="2303" y="712" type="qcurve"/>
      <point x="2581" y="660" type="line"/>
      <point x="2581" y="541"/>
      <point x="2522" y="350"/>
      <point x="2412" y="203"/>
      <point x="2257" y="98"/>
      <point x="2065" y="31"/>
      <point x="1841" y="0"/>
      <point x="1717" y="0" type="qcurve" smooth="yes"/>
    </contour>
  </outline>
</glyph>
<glyph name="caroncomb.alt" format="2">
  <anchor x="0" y="1448" name="right"/>
  <outline>
    <contour>
      <point x="188" y="1110" type="line"/>
      <point x="242" y="1448" type="line"/>
      <point x="431" y="1448" type="line"/>
      <point x="373" y="1151" type="line"/>
    </contour>
  </outline>
</glyph>
<glyph name="colonmonetary.alt" format="2">
  <advance width="2722" height="1448"/>
  <outline>
    <contour>
      <point x="294" y="1100" type="line"/>
      <point x="294" y="312" type="line" smooth="yes"/>
      <point x="294" y="235"/>
      <point x="331" y="126"/>
      <point x="413" y="57"/>
      <point x="543" y="26"/>
      <point x="636" y="26" type="qcurve" smooth="yes"/>
      <point x="2128" y="26" type="line" smooth="yes"/>
      <point x="2221" y="26"/>
      <point x="2352" y="57"/>
      <point x="2434" y="126"/>
      <point x="2472" y="235"/>
      <point x="2472" y="312" type="qcurve" smooth="yes"/>
      <point x="2472" y="478" type="line"/>
      <point x="2208" y="530" type="line"/>
      <point x="2208" y="270" type="line"/>
      <point x="2208" y="270"/>
      <point x="2208" y="270"/>
      <point x="2208" y="270"/>
      <point x="2208" y="270"/>
      <point x="2208" y="270" type="qcurve"/>
      <point x="558" y="270" type="line"/>
      <point x="558" y="270"/>
      <point x="558" y="270"/>
      <point x="558" y="270"/>
      <point x="558" y="270"/>
      <point x="558" y="270" type="qcurve"/>
      <point x="558" y="1130" type="line"/>
      <point x="558" y="1130"/>
      <point x="558" y="1130"/>
      <point x="558" y="1130"/>
      <point x="558" y="1130"/>
      <point x="558" y="1130" type="qcurve"/>
      <point x="2200" y="1130" type="line"/>
      <point x="2200" y="1130"/>
      <point x="2200" y="1130"/>
      <point x="2200" y="1130"/>
      <point x="2200" y="1130"/>
      <point x="2200" y="1130" type="qcurve"/>
      <point x="2200" y="896" type="line"/>
      <point x="2464" y="944" type="line"/>
      <point x="2464" y="1100" type="line" smooth="yes"/>
      <point x="2464" y="1174"/>
      <point x="2426" y="1278"/>
      <point x="2343" y="1344"/>
      <point x="2212" y="1374"/>
      <point x="2120" y="1374" type="qcurve" smooth="yes"/>
      <point x="636" y="1374" type="line" smooth="yes"/>
      <point x="545" y="1374"/>
      <point x="415" y="1344"/>
      <point x="332" y="1278"/>
      <point x="294" y="1174"/>
      <point x="294" y="1100" type="qcurve"/>
    </contour>
    <contour>
      <point x="1307" y="36" type="line"/>
      <point x="1272" y="-164" type="line"/>
      <point x="1436" y="-164" type="line"/>
      <point x="1471" y="36" type="line"/>
    </contour>
    <contour>
      <point x="1675" y="1358" type="line"/>
      <point x="1711" y="1564" type="line"/>
      <point x="1547" y="1564" type="line"/>
      <point x="1511" y="1358" type="line"/>
    </contour>
    <contour>
      <point x="1027" y="36" type="line"/>
      <point x="992" y="-164" type="line"/>
      <point x="1156" y="-164" type="line"/>
      <point x="1191" y="36" type="line"/>
    </contour>
    <contour>
      <point x="1395" y="1358" type="line"/>
      <point x="1431" y="1564" type="line"/>
      <point x="1267" y="1564" type="line"/>
      <point x="1231" y="1358" type="line"/>
    </contour>
  </outline>
</glyph>
<glyph name="dollar.alt2" format="2">
  <advance width="2686"/>
  <outline>
    <contour>
      <point x="586" y="-14" type="line" smooth="yes"/>
      <point x="507" y="-14"/>
      <point x="380" y="9"/>
      <point x="291" y="72"/>
      <point x="244" y="184"/>
      <point x="244" y="272" type="qcurve" smooth="yes"/>
      <point x="244" y="364" type="line"/>
      <point x="496" y="416" type="line"/>
      <point x="496" y="230" type="line"/>
      <point x="496" y="230"/>
      <point x="496" y="230"/>
      <point x="496" y="230"/>
      <point x="496" y="230"/>
      <point x="496" y="230" type="qcurve"/>
      <point x="2180" y="230" type="line"/>
      <point x="2180" y="230"/>
      <point x="2180" y="230"/>
      <point x="2180" y="230"/>
      <point x="2180" y="230"/>
      <point x="2180" y="230" type="qcurve"/>
      <point x="2180" y="586" type="line"/>
      <point x="2180" y="586"/>
      <point x="2180" y="586"/>
      <point x="2180" y="586"/>
      <point x="2180" y="586"/>
      <point x="2180" y="586" type="qcurve"/>
      <point x="616" y="586" type="line" smooth="yes"/>
      <point x="537" y="586"/>
      <point x="410" y="610"/>
      <point x="321" y="673"/>
      <point x="274" y="786"/>
      <point x="274" y="874" type="qcurve" smooth="yes"/>
      <point x="274" y="1120" type="line" smooth="yes"/>
      <point x="274" y="1206"/>
      <point x="324" y="1313"/>
      <point x="414" y="1373"/>
      <point x="540" y="1394"/>
      <point x="616" y="1394" type="qcurve" smooth="yes"/>
      <point x="2068" y="1394" type="line" smooth="yes"/>
      <point x="2145" y="1394"/>
      <point x="2271" y="1373"/>
      <point x="2362" y="1313"/>
      <point x="2412" y="1206"/>
      <point x="2412" y="1120" type="qcurve" smooth="yes"/>
      <point x="2412" y="1040" type="line"/>
      <point x="2160" y="990" type="line"/>
      <point x="2160" y="1150" type="line"/>
      <point x="2160" y="1150"/>
      <point x="2160" y="1150"/>
      <point x="2160" y="1150"/>
      <point x="2160" y="1150"/>
      <point x="2160" y="1150" type="qcurve"/>
      <point x="526" y="1150" type="line"/>
      <point x="526" y="1150"/>
      <point x="526" y="1150"/>
      <point x="526" y="1150"/>
      <point x="526" y="1150"/>
      <point x="526" y="1150" type="qcurve"/>
      <point x="526" y="830" type="line"/>
      <point x="526" y="830"/>
      <point x="526" y="830"/>
      <point x="526" y="830"/>
      <point x="526" y="830"/>
      <point x="526" y="830" type="qcurve"/>
      <point x="2088" y="830" type="line" smooth="yes"/>
      <point x="2165" y="830"/>
      <point x="2291" y="809"/>
      <point x="2382" y="749"/>
      <point x="2432" y="642"/>
      <point x="2432" y="556" type="qcurve" smooth="yes"/>
      <point x="2432" y="272" type="line" smooth="yes"/>
      <point x="2432" y="184"/>
      <point x="2385" y="72"/>
      <point x="2296" y="9"/>
      <point x="2168" y="-14"/>
      <point x="2088" y="-14" type="qcurve" smooth="yes"/>
    </contour>
    <contour>
      <point x="950" y="-150" type="line"/>
      <point x="950" y="1564" type="line"/>
      <point x="1164" y="1564" type="line"/>
      <point x="1164" y="-150" type="line"/>
    </contour>
    <contour>
      <point x="1510" y="-150" type="line"/>
      <point x="1510" y="1564" type="line"/>
      <point x="1724" y="1564" type="line"/>
      <point x="1724" y="-150" type="line"/>
    </contour>
  </outline>
</glyph>
<glyph name="question.sc" format="2">
  <advance width="1711"/>
  <outline>
    <contour>
      <point x="678" y="357" type="line"/>
      <point x="678" y="479" type="line" smooth="yes"/>
      <point x="678" y="505"/>
      <point x="696" y="551"/>
      <point x="737" y="589"/>
      <point x="801" y="618"/>
      <point x="846" y="628" type="qcurve" smooth="yes"/>
      <point x="1154" y="693" type="line" smooth="yes"/>
      <point x="1181" y="699"/>
      <point x="1216" y="712"/>
      <point x="1236" y="735"/>
      <point x="1244" y="769"/>
      <point x="1244" y="795" type="qcurve" smooth="yes"/>
      <point x="1244" y="872" type="line"/>
      <point x="1244" y="872"/>
      <point x="1244" y="872"/>
      <point x="1244" y="872"/>
      <point x="1244" y="872"/>
      <point x="1244" y="872" type="qcurve"/>
      <point x="376" y="872" type="line"/>
      <point x="376" y="872"/>
      <point x="376" y="872"/>
      <point x="376" y="872"/>
      <point x="376" y="872"/>
      <point x="376" y="872" type="qcurve"/>
      <point x="376" y="744" type="line"/>
      <point x="155" y="781" type="line"/>
      <point x="155" y="882" type="line" smooth="yes"/>
      <point x="155" y="932"/>
      <point x="186" y="1003"/>
      <point x="251" y="1049"/>
      <point x="354" y="1070"/>
      <point x="426" y="1070" type="qcurve" smooth="yes"/>
      <point x="1192" y="1070" type="line" smooth="yes"/>
      <point x="1265" y="1070"/>
      <point x="1368" y="1049"/>
      <point x="1433" y="1004"/>
      <point x="1463" y="933"/>
      <point x="1463" y="882" type="qcurve" smooth="yes"/>
      <point x="1463" y="721" type="line" smooth="yes"/>
      <point x="1463" y="681"/>
      <point x="1440" y="623"/>
      <point x="1397" y="583"/>
      <point x="1336" y="558"/>
      <point x="1298" y="550" type="qcurve" smooth="yes"/>
      <point x="967" y="480" type="line" smooth="yes"/>
      <point x="948" y="476"/>
      <point x="921" y="462"/>
      <point x="904" y="445"/>
      <point x="896" y="427"/>
      <point x="896" y="419" type="qcurve" smooth="yes"/>
      <point x="896" y="357" type="line"/>
    </contour>
    <contour>
      <point x="642" y="101" type="line"/>
      <point x="642" y="171" type="line" smooth="yes"/>
      <point x="642" y="210"/>
      <point x="646" y="253"/>
      <point x="666" y="272"/>
      <point x="708" y="276"/>
      <point x="747" y="276" type="qcurve" smooth="yes"/>
      <point x="825" y="276" type="line" smooth="yes"/>
      <point x="864" y="276"/>
      <point x="907" y="272"/>
      <point x="928" y="253"/>
      <point x="932" y="210"/>
      <point x="932" y="171" type="qcurve" smooth="yes"/>
      <point x="932" y="101" type="line" smooth="yes"/>
      <point x="932" y="61"/>
      <point x="928" y="18"/>
      <point x="907" y="-2"/>
      <point x="864" y="-6"/>
      <point x="825" y="-6" type="qcurve" smooth="yes"/>
      <point x="747" y="-6" type="line" smooth="yes"/>
      <point x="708" y="-6"/>
      <point x="666" y="-2"/>
      <point x="646" y="18"/>
      <point x="642" y="61"/>
      <point x="642" y="101" type="qcurve"/>
    </contour>
  </outline>
</glyph>
<glyph name="six.dnom" format="2">
  <advance width="1539"/>
  <outline>
    <contour>
      <point x="779" y="-6" type="line"/>
      <point x="911" y="-6"/>
      <point x="1099" y="-2"/>
      <point x="1227" y="15"/>
      <point x="1302" y="50"/>
      <point x="1341" y="113"/>
      <point x="1353" y="208"/>
      <point x="1353" y="277" type="qcurve" smooth="yes"/>
      <point x="1353" y="357"/>
      <point x="1309" y="447"/>
      <point x="1187" y="491"/>
      <point x="971" y="502"/>
      <point x="799" y="502" type="qcurve" smooth="yes"/>
      <point x="683" y="502"/>
      <point x="505" y="492"/>
      <point x="381" y="477"/>
      <point x="311" y="459"/>
      <point x="302" y="452" type="qcurve"/>
      <point x="302" y="295" type="line"/>
      <point x="327" y="304"/>
      <point x="418" y="317"/>
      <point x="542" y="327"/>
      <point x="694" y="332"/>
      <point x="780" y="332" type="qcurve" smooth="yes"/>
      <point x="862" y="332"/>
      <point x="981" y="330"/>
      <point x="1064" y="324"/>
      <point x="1114" y="314"/>
      <point x="1142" y="296"/>
      <point x="1151" y="271"/>
      <point x="1151" y="254" type="qcurve" smooth="yes"/>
      <point x="1151" y="237"/>
      <point x="1142" y="210"/>
      <point x="1113" y="191"/>
      <point x="1058" y="179"/>
      <point x="968" y="172"/>
      <point x="836" y="169"/>
      <point x="744" y="169" type="qcurve" smooth="yes"/>
      <point x="666" y="169"/>
      <point x="552" y="171"/>
      <point x="472" y="176"/>
      <point x="423" y="187"/>
      <point x="395" y="204"/>
      <point x="385" y="230"/>
      <point x="385" y="248" type="qcurve" smooth="yes"/>
      <point x="385" y="316"/>
      <point x="413" y="425"/>
      <point x="474" y="509"/>
      <point x="569" y="568"/>
      <point x="705" y="606"/>
      <point x="882" y="624"/>
      <point x="994" y="624" type="qcurve" smooth="yes"/>
      <point x="1026" y="624"/>
      <point x="1114" y="622"/>
      <point x="1198" y="619"/>
      <point x="1265" y="616"/>
      <point x="1275" y="615" type="qcurve"/>
      <point x="1145" y="792" type="line"/>
      <point x="1133" y="793"/>
      <point x="1083" y="795"/>
      <point x="1024" y="797"/>
      <point x="964" y="798"/>
      <point x="941" y="798" type="qcurve" smooth="yes"/>
      <point x="750" y="798"/>
      <point x="466" y="732"/>
      <point x="279" y="600"/>
      <point x="186" y="401"/>
      <point x="186" y="267" type="qcurve" smooth="yes"/>
      <point x="186" y="201"/>
      <point x="202" y="108"/>
      <point x="248" y="48"/>
      <point x="330" y="14"/>
      <point x="462" y="-3"/>
      <point x="650" y="-6"/>
      <point x="779" y="-6" type="qcurve"/>
    </contour>
  </outline>
</glyph>
<glyph name="tildecomb.case" format="2">
  <anchor x="0" y="1150" name="_top"/>
  <anchor x="0" y="1500" name="top"/>
  <outline>
    <contour>
      <point x="-473" y="1159" type="line"/>
      <point x="-460" y="1231"/>
      <point x="-395" y="1324"/>
      <point x="-313" y="1379"/>
      <point x="-224" y="1400"/>
      <point x="-186" y="1400" type="qcurve" smooth="yes"/>
      <point x="-153" y="1400"/>
      <point x="-85" y="1388"/>
      <point x="-19" y="1371"/>
      <point x="47" y="1351"/>
      <point x="109" y="1334"/>
      <point x="169" y="1322"/>
      <point x="196" y="1322" type="qcurve" smooth="yes"/>
      <point x="216" y="1322"/>
      <point x="251" y="1330"/>
      <point x="279" y="1348"/>
      <point x="300" y="1378"/>
      <point x="305" y="1400" type="qcurve"/>
      <point x="473" y="1371" type="line"/>
      <point x="460" y="1298"/>
      <point x="395" y="1205"/>
      <point x="313" y="1151"/>
      <point x="224" y="1130"/>
      <point x="186" y="1130" type="qcurve" smooth="yes"/>
      <point x="153" y="1130"/>
      <point x="85" y="1142"/>
      <point x="19" y="1159"/>
      <point x="-47" y="1179"/>
      <point x="-109" y="1196"/>
      <point x="-169" y="1208"/>
      <point x="-196" y="1208" type="qcurve" smooth="yes"/>
      <point x="-216" y="1208"/>
      <point x="-251" y="1201"/>
      <point x="-279" y="1183"/>
      <point x="-300" y="1153"/>
      <point x="-305" y="1130" type="qcurve"/>
    </contour>
  </outline>
  <guideline angle="90" x="-473" y="0"/>
  <guideline angle="90" x="473" y="0"/>
</glyph>
<glyph name="uni0308.case" format="2">
  <anchor x="0" y="1150" name="_top"/>
  <anchor x="0" y="1550" name="_bottom"/>
  <anchor x="0" y="1500" name="top"/>
  <outline>
    <contour>
      <point x="-380" y="1230" type="line" smooth="yes"/>
      <point x="-380" y="1197"/>
      <point x="-377" y="1161"/>
      <point x="-359" y="1143"/>
      <point x="-323" y="1140"/>
      <point x="-290" y="1140" type="qcurve" smooth="yes"/>
      <point x="-220" y="1140" type="line" smooth="yes"/>
      <point x="-187" y="1140"/>
      <point x="-151" y="1143"/>
      <point x="-133" y="1161"/>
      <point x="-130" y="1197"/>
      <point x="-130" y="1230" type="qcurve" smooth="yes"/>
      <point x="-130" y="1302" type="line" smooth="yes"/>
      <point x="-130" y="1334"/>
      <point x="-133" y="1370"/>
      <point x="-151" y="1387"/>
      <point x="-187" y="1390"/>
      <point x="-220" y="1390" type="qcurve" smooth="yes"/>
      <point x="-290" y="1390" type="line" smooth="yes"/>
      <point x="-323" y="1390"/>
      <point x="-359" y="1387"/>
      <point x="-377" y="1370"/>
      <point x="-380" y="1334"/>
      <point x="-380" y="1302" type="qcurve" smooth="yes"/>
    </contour>
    <contour>
      <point x="130" y="1230" type="line" smooth="yes"/>
      <point x="130" y="1197"/>
      <point x="133" y="1161"/>
      <point x="151" y="1143"/>
      <point x="187" y="1140"/>
      <point x="220" y="1140" type="qcurve" smooth="yes"/>
      <point x="290" y="1140" type="line" smooth="yes"/>
      <point x="323" y="1140"/>
      <point x="359" y="1143"/>
      <point x="377" y="1161"/>
      <point x="380" y="1197"/>
      <point x="380" y="1230" type="qcurve" smooth="yes"/>
      <point x="380" y="1302" type="line" smooth="yes"/>
      <point x="380" y="1334"/>
      <point x="377" y="1370"/>
      <point x="359" y="1387"/>
      <point x="323" y="1390"/>
      <point x="290" y="1390" type="qcurve" smooth="yes"/>
      <point x="220" y="1390" type="line" smooth="yes"/>
      <point x="187" y="1390"/>
      <point x="151" y="1387"/>
      <point x="133" y="1370"/>
      <point x="130" y="1334"/>
      <point x="130" y="1302" type="qcurve" smooth="yes"/>
    </contour>
  </outline>
</glyph>
<glyph name="uni030A.case" format="2">
  <anchor x="0" y="1150" name="_top"/>
  <anchor x="0" y="1608" name="top"/>
  <outline>
    <contour>
      <point x="-261" y="1279" type="line"/>
      <point x="-261" y="1215"/>
      <point x="-244" y="1136"/>
      <point x="-189" y="1093"/>
      <point x="-86" y="1079"/>
      <point x="0" y="1079" type="qcurve" smooth="yes"/>
      <point x="86" y="1079"/>
      <point x="189" y="1093"/>
      <point x="245" y="1136"/>
      <point x="262" y="1215"/>
      <point x="262" y="1279" type="qcurve" smooth="yes"/>
      <point x="262" y="1343"/>
      <point x="245" y="1421"/>
      <point x="189" y="1464"/>
      <point x="86" y="1478"/>
      <point x="0" y="1478" type="qcurve" smooth="yes"/>
      <point x="-86" y="1478"/>
      <point x="-189" y="1464"/>
      <point x="-244" y="1421"/>
      <point x="-261" y="1343"/>
      <point x="-261" y="1279" type="qcurve"/>
    </contour>
    <contour>
      <point x="-121" y="1279" type="line"/>
      <point x="-121" y="1300"/>
      <point x="-116" y="1329"/>
      <point x="-92" y="1346"/>
      <point x="-44" y="1354"/>
      <point x="0" y="1354" type="qcurve" smooth="yes"/>
      <point x="44" y="1354"/>
      <point x="93" y="1346"/>
      <point x="117" y="1329"/>
      <point x="122" y="1300"/>
      <point x="122" y="1279" type="qcurve" smooth="yes"/>
      <point x="122" y="1258"/>
      <point x="117" y="1229"/>
      <point x="93" y="1211"/>
      <point x="44" y="1203"/>
      <point x="0" y="1203" type="qcurve" smooth="yes"/>
      <point x="-44" y="1203"/>
      <point x="-92" y="1211"/>
      <point x="-116" y="1229"/>
      <point x="-121" y="1258"/>
      <point x="-121" y="1279" type="qcurve"/>
    </contour>
  </outline>
</glyph>
<glyph name="uni0328.case" format="2">
  <anchor x="-1" y="-150" name="_bottom"/>
  <anchor x="-111" y="0" name="_ogonek_in"/>
  <anchor x="154" y="0" name="_ogonek"/>
  <outline>
    <contour>
      <point x="154" y="0" type="line"/>
      <point x="109" y="0"/>
      <point x="37" y="-23"/>
      <point x="-14" y="-62"/>
      <point x="-42" y="-112"/>
      <point x="-42" y="-139" type="qcurve" smooth="yes"/>
      <point x="-42" y="-161"/>
      <point x="-23" y="-198"/>
      <point x="14" y="-224"/>
      <point x="69" y="-238"/>
      <point x="104" y="-238" type="qcurve" smooth="yes"/>
      <point x="124" y="-238"/>
      <point x="166" y="-234"/>
      <point x="208" y="-226"/>
      <point x="247" y="-215"/>
      <point x="263" y="-209" type="qcurve"/>
      <point x="222" y="-399" type="line"/>
      <point x="177" y="-419"/>
      <point x="82" y="-439"/>
      <point x="32" y="-439" type="qcurve" smooth="yes"/>
      <point x="-33" y="-439"/>
      <point x="-141" y="-407"/>
      <point x="-220" y="-348"/>
      <point x="-264" y="-266"/>
      <point x="-264" y="-215" type="qcurve" smooth="yes"/>
      <point x="-264" y="-181"/>
      <point x="-243" y="-118"/>
      <point x="-204" y="-63"/>
      <point x="-147" y="-17"/>
      <point x="-111" y="0" type="qcurve"/>
    </contour>
  </outline>
</glyph>
<glyph name="uni0443.sc" format="2">
  <advance width="2395"/>
  <anchor x="1198" y="1210" name="top"/>
  <outline>
    <contour>
      <point x="302" y="269" type="line"/>
      <point x="302" y="200" type="line" smooth="yes"/>
      <point x="302" y="130"/>
      <point x="342" y="46"/>
      <point x="416" y="1"/>
      <point x="522" y="-13"/>
      <point x="588" y="-13" type="qcurve" smooth="yes"/>
      <point x="1804" y="-13" type="line" smooth="yes"/>
      <point x="1871" y="-13"/>
      <point x="1978" y="1"/>
      <point x="2053" y="46"/>
      <point x="2093" y="130"/>
      <point x="2093" y="200" type="qcurve" smooth="yes"/>
      <point x="2093" y="1060" type="line"/>
      <point x="1843" y="1060" type="line"/>
      <point x="1843" y="653" type="line"/>
      <point x="577" y="653" type="line"/>
      <point x="577" y="653"/>
      <point x="577" y="653"/>
      <point x="577" y="653" type="qcurve"/>
      <point x="577" y="1060" type="line"/>
      <point x="327" y="1060" type="line"/>
      <point x="327" y="641" type="line" smooth="yes"/>
      <point x="327" y="571"/>
      <point x="367" y="486"/>
      <point x="441" y="441"/>
      <point x="547" y="426"/>
      <point x="613" y="426" type="qcurve" smooth="yes"/>
      <point x="1843" y="426" type="line"/>
      <point x="1843" y="214" type="line"/>
      <point x="1843" y="214"/>
      <point x="1843" y="214"/>
      <point x="1843" y="214" type="qcurve"/>
      <point x="552" y="214" type="line"/>
      <point x="552" y="214"/>
      <point x="552" y="214"/>
      <point x="552" y="214" type="qcurve"/>
      <point x="552" y="317" type="line"/>
    </contour>
  </outline>
</glyph>
<glyph name="uni0448.sc" format="2">
  <advance width="3262"/>
  <outline>
    <contour>
      <point x="310" y="0" type="line"/>
      <point x="2952" y="0" type="line"/>
      <point x="2952" y="1060" type="line"/>
      <point x="2702" y="1060" type="line"/>
      <point x="2702" y="227" type="line"/>
      <point x="1756" y="227" type="line"/>
      <point x="1756" y="1060" type="line"/>
      <point x="1506" y="1060" type="line"/>
      <point x="1506" y="227" type="line"/>
      <point x="560" y="227" type="line"/>
      <point x="560" y="1060" type="line"/>
      <point x="310" y="1060" type="line"/>
    </contour>
  </outline>
</glyph>
<glyph name="uni0452.sc" format="2">
  <advance width="2911"/>
  <outline>
    <contour>
      <point x="926" y="0" type="line"/>
      <point x="1176" y="0" type="line"/>
      <point x="1176" y="461" type="line"/>
      <point x="2449" y="461" type="line" smooth="yes"/>
      <point x="2472" y="461"/>
      <point x="2505" y="453"/>
      <point x="2527" y="434"/>
      <point x="2537" y="402"/>
      <point x="2537" y="378" type="qcurve" smooth="yes"/>
      <point x="2537" y="295" type="line" smooth="yes"/>
      <point x="2537" y="271"/>
      <point x="2527" y="239"/>
      <point x="2505" y="220"/>
      <point x="2472" y="212"/>
      <point x="2449" y="212" type="qcurve" smooth="yes"/>
      <point x="2011" y="212" type="line"/>
      <point x="2011" y="0" type="line"/>
      <point x="2504" y="0" type="line" smooth="yes"/>
      <point x="2565" y="0"/>
      <point x="2669" y="14"/>
      <point x="2744" y="57"/>
      <point x="2787" y="138"/>
      <point x="2787" y="204" type="qcurve" smooth="yes"/>
      <point x="2787" y="481" type="line" smooth="yes"/>
      <point x="2787" y="529"/>
      <point x="2752" y="601"/>
      <point x="2682" y="649"/>
      <point x="2575" y="673"/>
      <point x="2504" y="673" type="qcurve" smooth="yes"/>
      <point x="1176" y="673" type="line"/>
      <point x="1176" y="848" type="line"/>
      <point x="2092" y="848" type="line"/>
      <point x="2092" y="1060" type="line"/>
      <point x="10" y="1060" type="line"/>
      <point x="10" y="848" type="line"/>
      <point x="926" y="848" type="line"/>
    </contour>
  </outline>
  <guideline angle="90" color="1,0,0,1" x="926" y="0"/>
</glyph>
<glyph name="uni0463.sc" format="2">
  <advance width="2305"/>
  <outline>
    <contour>
      <point x="320" y="0" type="line"/>
      <point x="1898" y="0" type="line" smooth="yes"/>
      <point x="1960" y="0"/>
      <point x="2063" y="14"/>
      <point x="2139" y="57"/>
      <point x="2181" y="138"/>
      <point x="2181" y="204" type="qcurve" smooth="yes"/>
      <point x="2181" y="505" type="line" smooth="yes"/>
      <point x="2181" y="553"/>
      <point x="2146" y="625"/>
      <point x="2076" y="673"/>
      <point x="1970" y="697"/>
      <point x="1898" y="697" type="qcurve" smooth="yes"/>
      <point x="570" y="697" type="line"/>
      <point x="570" y="781" type="line"/>
      <point x="1389" y="781" type="line"/>
      <point x="1389" y="976" type="line"/>
      <point x="570" y="976" type="line"/>
      <point x="570" y="1060" type="line"/>
      <point x="320" y="1060" type="line"/>
      <point x="320" y="976" type="line"/>
      <point x="151" y="976" type="line"/>
      <point x="151" y="781" type="line"/>
      <point x="320" y="781" type="line"/>
    </contour>
    <contour>
      <point x="570" y="212" type="line"/>
      <point x="570" y="485" type="line"/>
      <point x="1843" y="485" type="line" smooth="yes"/>
      <point x="1866" y="485"/>
      <point x="1899" y="477"/>
      <point x="1921" y="458"/>
      <point x="1931" y="426"/>
      <point x="1931" y="402" type="qcurve" smooth="yes"/>
      <point x="1931" y="295" type="line" smooth="yes"/>
      <point x="1931" y="271"/>
      <point x="1921" y="239"/>
      <point x="1899" y="220"/>
      <point x="1866" y="212"/>
      <point x="1843" y="212" type="qcurve" smooth="yes"/>
    </contour>
  </outline>
</glyph>
<glyph name="uni0491.sc" format="2">
  <advance width="1741"/>
  <outline>
    <contour>
      <point x="310" y="0" type="line"/>
      <point x="560" y="0" type="line"/>
      <point x="560" y="833" type="line"/>
      <point x="1731" y="833" type="line"/>
      <point x="1731" y="1198" type="line"/>
      <point x="1513" y="1198" type="line"/>
      <point x="1501" y="1060" type="line"/>
      <point x="310" y="1060" type="line"/>
    </contour>
  </outline>
</glyph>
<glyph name="x.sc" format="2">
  <advance width="2025"/>
  <outline>
    <contour>
      <point x="2" y="0" type="line"/>
      <point x="375" y="0" type="line"/>
      <point x="995" y="404" type="line"/>
      <point x="1590" y="0" type="line"/>
      <point x="2025" y="0" type="line"/>
      <point x="1196" y="559" type="line"/>
      <point x="1941" y="1060" type="line"/>
      <point x="1571" y="1060" type="line"/>
      <point x="1007" y="684" type="line"/>
      <point x="444" y="1060" type="line"/>
      <point x="0" y="1060" type="line"/>
      <point x="804" y="532" type="line"/>
    </contour>
  </outline>
</glyph>
